<?xml version="1.0" encoding="UTF-8" standalone="no"?>
<svg
   viewBox="0 0 18 18"
   version="1.1"
   id="svg4"
   width="18"
   height="18"
   xmlns="http://www.w3.org/2000/svg"
   xmlns:svg="http://www.w3.org/2000/svg">
  <defs
     id="defs8" />
  <!-- Font Awesome Free 5.15.4 by @fontawesome - https://fontawesome.com License - https://fontawesome.com/license/free (Icons: CC BY 4.0, Fonts: SIL OFL 1.1, Code: MIT License) -->
  <path
     d="M 13.163226,4.546452 C 12.028718,3.484161 10.556419,2.901847 8.994484,2.903226 6.183508,2.905726 3.756774,4.833073 3.086746,7.506653 3.037976,7.701278 2.864577,7.83871 2.663927,7.83871 H 0.5843831 C 0.3122782,7.83871 0.1055685,7.591681 0.1559032,7.324258 0.9411169,3.1545 4.602085,0 9,0 c 2.411419,0 4.601286,0.9484839 6.217077,2.492601 L 16.513185,1.1964919 C 17.061859,0.6478185 18,1.0364153 18,1.812375 v 4.865044 c 0,0.481029 -0.38994,0.870968 -0.870968,0.870968 h -4.865044 c -0.77596,0 -1.164557,-0.938141 -0.615883,-1.486851 z M 0.8709677,10.451613 H 5.736012 c 0.77596,0 1.164557,0.938141 0.615883,1.486851 l -1.515121,1.515121 c 1.134508,1.062326 2.606916,1.644641 4.168887,1.643225 2.809524,-0.0025 5.237238,-1.928612 5.907593,-4.603391 0.04877,-0.194625 0.222169,-0.332056 0.422819,-0.332056 h 2.07958 c 0.272105,0 0.478815,0.247028 0.42848,0.514452 C 17.058883,14.8455 13.397915,18 9,18 6.588581,18 4.398714,17.051516 2.782923,15.507399 L 1.4868145,16.803508 C 0.9381411,17.352181 0,16.963585 0,16.187625 v -4.865044 c 0,-0.481029 0.3899395,-0.870968 0.8709677,-0.870968 z"
     id="path2"
     style="stroke-width:0.0362903" />
</svg>
