<?xml version="1.0" encoding="UTF-8" standalone="no"?>
<svg
   viewBox="0 0 20 18"
   version="1.1"
   id="svg4"
   width="20"
   height="18"
   xmlns="http://www.w3.org/2000/svg"
   xmlns:svg="http://www.w3.org/2000/svg">
  <defs
     id="defs8" />
  <!-- Font Awesome Free 5.15.4 by @fontawesome - https://fontawesome.com License - https://fontawesome.com/license/free (Icons: CC BY 4.0, Fonts: SIL OFL 1.1, Code: MIT License) -->
  <path
     style="fill:#000000;fill-opacity:0.3;stroke:none;stroke-width:0.0475047;stroke-miterlimit:4;stroke-dasharray:none;stroke-opacity:1"
     d="M 19.310346,0 H 17.241379 C 16.860344,0 16.551726,0.30980534 16.551726,0.69230582 V 17.30769 c 0,0.382501 0.308618,0.69231 0.689653,0.69231 h 2.068967 C 19.691382,18 20,17.690191 20,17.30769 V 0.69230582 C 20,0.30980534 19.691382,0 19.310346,0 Z"
     id="path1101" />
  <path
     style="fill:#000000;fill-opacity:0.3;stroke:none;stroke-width:0.0475047;stroke-miterlimit:4;stroke-dasharray:none;stroke-opacity:1"
     d="m 13.793105,4.1538462 h -2.068968 c -0.381035,0 -0.689653,0.3098053 -0.689653,0.6923058 V 17.30769 c 0,0.382501 0.308618,0.69231 0.689653,0.69231 h 2.068968 c 0.381035,0 0.689654,-0.309809 0.689654,-0.69231 V 4.846152 c 0,-0.3825005 -0.308619,-0.6923058 -0.689654,-0.6923058 z"
     id="path1099" />
  <path
     style="fill:#000000;fill-opacity:1;stroke:none;stroke-width:0.0475047;stroke-miterlimit:4;stroke-dasharray:none;stroke-opacity:1"
     d="M 2.758621,12.461538 H 0.68965338 C 0.30861838,12.461538 0,12.771344 0,13.153844 V 17.30769 C 0,17.690191 0.30861838,18 0.68965338,18 H 2.758621 c 0.381035,0 0.6896534,-0.309809 0.6896534,-0.69231 v -4.153846 c 0,-0.3825 -0.3086184,-0.692306 -0.6896534,-0.692306 z"
     id="path1097" />
  <path
     style="fill:#000000;fill-opacity:0.3;stroke:none;stroke-width:0.0475047;stroke-miterlimit:4;stroke-dasharray:none;stroke-opacity:1"
     d="M 8.2758629,8.3076923 H 6.2068954 c -0.3810351,0 -0.6896535,0.3098053 -0.6896535,0.6923058 V 17.30769 C 5.5172419,17.690191 5.8258603,18 6.2068954,18 h 2.0689675 c 0.381035,0 0.6896534,-0.309809 0.6896534,-0.69231 V 8.9999981 c 0,-0.3825005 -0.3086184,-0.6923058 -0.6896534,-0.6923058 z"
     id="path2" />
</svg>
