<?xml version="1.0" encoding="UTF-8" standalone="no"?>
<svg
   viewBox="0 0 16 18"
   version="1.1"
   id="svg4"
   width="16"
   height="18"
   xmlns="http://www.w3.org/2000/svg"
   xmlns:svg="http://www.w3.org/2000/svg">
  <defs
     id="defs8" />
  <!-- Font Awesome Free 5.15.4 by @fontawesome - https://fontawesome.com License - https://fontawesome.com/license/free (Icons: CC BY 4.0, Fonts: SIL OFL 1.1, Code: MIT License) -->
  <path
     d="M 14.285714,7.875 H 13.428571 V 5.34375 C 13.428571,2.3976563 10.992857,0 8,0 5.0071428,0 2.5714286,2.3976563 2.5714286,5.34375 V 7.875 H 1.7142857 C 0.76785714,7.875 0,8.6308594 0,9.5625 v 6.75 C 0,17.244141 0.76785714,18 1.7142857,18 H 14.285714 C 15.232143,18 16,17.244141 16,16.3125 v -6.75 C 16,8.6308594 15.232143,7.875 14.285714,7.875 Z m -3.714285,0 H 5.4285714 V 5.34375 C 5.4285714,3.9480469 6.5821429,2.8125 8,2.8125 c 1.4178571,0 2.571429,1.1355469 2.571429,2.53125 z"
     id="path2"
     style="stroke-width:0.0354341" />
</svg>
